 http://img59.imageshack.us/img59/3462/killingbono.jpg

Country.......: United Kingdom
Genre.........: Comedy
Date release..: 01.04.2011 [World]
Director......: Nick Hamm
Writers.......: Dick Clement, Ian La Frenais
Duration......: 109 min.
More..........: http://www.imdb.com/title/tt1535101
Trailer.......: http://www.imdb.com/video/imdb/vi2173736985
Trailer.......:

Pilot :
Two brothers attempt to become global rock stars but can only look on as old school friends U2 become the biggest band in the world. 

Cats :
Ben Barnes   	 ...  	Neil McCormick
Robert Sheehan 	... 	Ivan McCormick
Krysten Ritter 	... 	Gloria
Pete Postlethwaite 	... 	Karl
Justine Waddell 	... 	Danielle
Peter Serafinowicz 	... 	Hammond
Ralph Brown 	... 	Leo
Luke Treadaway 	... 	Nick
Martin McCann 	... 	Bono
Hugh O Conor 	... 	Gary
Lisa McAllister 	... 	Erika
Diarmuid Noyes 	... 	Plugger
Stanley Townsend 	... 	Danny Machin
Jason Byrne 	... 	Hotel Receptionist
Sam Corry 	... 	Paul McGuinness 

Data Technical :
!!! SAMPLE !!!
Audio.....: English
Subtitles.: None
Format                           : AVI
Format/Info                      : Audio Video Interleave
File size                        : 701 MiB
Duration                         : 1h 48mn
Overall bit rate                 : 900 Kbps
Writing application              : AbSurDiTys HypeR XviD
Writing library                  : VirtualDub build 33848/release
Copyright                        : By AbSurdiTy
Video
ID                               : 0
Format                           : MPEG-4 Visual
Format profile                   : Advanced Simple@L5
Format settings, BVOP            : Yes
Format settings, QPel            : No
Format settings, GMC             : No warppoints
Format settings, Matrix          : Custom
Codec ID                         : XVID
Codec ID/Hint                    : XviD
Duration                         : 1h 48mn
Bit rate                         : 762 Kbps
Width                            : 640 pixels
Height                           : 272 pixels
Display aspect ratio             : 2.35:1
Frame rate                       : 25.000 fps
Color space                      : YUV
Chroma subsampling               : 4:2:0
Bit depth                        : 8 bits
Scan type                        : Progressive
Bits/(Pixel*Frame)               : 0.175
Stream size                      : 594 MiB (85%)
Writing library                  : XviD 58
Audio
ID                               : 1
Format                           : MPEG Audio
Format version                   : Version 1
Format profile                   : Layer 3
Mode                             : Joint stereo
Mode extension                   : MS Stereo
Codec ID                         : 55
Codec ID/Hint                    : MP3
Duration                         : 1h 48mn
Bit rate mode                    : Constant
Bit rate                         : 128 Kbps
Channel(s)                       : 2 channels
Sampling rate                    : 48.0 KHz
Stream size                      : 99.7 MiB (14%)
Alignment                        : Split accross interleaves
Interleave, duration             : 40 ms (1.00 video frame)
Interleave, preload duration     : 500 ms

Screen : 
http://img641.imageshack.us/img641/5254/killingbono2011s1.jpg 
http://img820.imageshack.us/img820/2232/killingbono2011s2.jpg 
http://img146.imageshack.us/img146/5821/killingbono2011s3.jpg 
http://img862.imageshack.us/img862/8273/killingbono2011s4.jpg 
http://img18.imageshack.us/img18/57/killingbono2011s5.jpg